<svg width="15" height="22" viewBox="0 0 15 22" fill="none" xmlns="http://www.w3.org/2000/svg">
<path d="M13.8329 8.44C13.7412 8.30429 13.6175 8.19319 13.4728 8.11647C13.3281 8.03975 13.1667 7.99975 13.0029 8H10.0029V6H12.2029C12.4681 6 12.7225 5.89464 12.91 5.70711C13.0976 5.51957 13.2029 5.26522 13.2029 5V1C13.2029 0.734784 13.0976 0.48043 12.91 0.292893C12.7225 0.105357 12.4681 0 12.2029 0H9.00293C7.46467 0 5.98942 0.61107 4.90171 1.69878C3.814 2.78649 3.20293 4.26174 3.20293 5.8V8H1.00293C0.737713 8 0.483359 8.10536 0.295823 8.29289C0.108287 8.48043 0.00292969 8.73478 0.00292969 9V13C0.00292969 13.2652 0.108287 13.5196 0.295823 13.7071C0.483359 13.8946 0.737713 14 1.00293 14H3.20293V21C3.20293 21.2652 3.30829 21.5196 3.49582 21.7071C3.68336 21.8946 3.93771 22 4.20293 22H9.00293C9.26815 22 9.5225 21.8946 9.71004 21.7071C9.89757 21.5196 10.0029 21.2652 10.0029 21V14H11.4029C11.6032 14.0002 11.7989 13.9402 11.9647 13.8279C12.1306 13.7156 12.2588 13.5561 12.3329 13.37L13.9329 9.37C13.9933 9.21858 14.0158 9.05468 13.9984 8.89259C13.9809 8.7305 13.9241 8.57512 13.8329 8.44ZM10.7229 12H9.00293C8.73771 12 8.48336 12.1054 8.29582 12.2929C8.10829 12.4804 8.00293 12.7348 8.00293 13V20H5.20293V13C5.20293 12.7348 5.09757 12.4804 4.91004 12.2929C4.7225 12.1054 4.46815 12 4.20293 12H2.00293V10H4.20293C4.46815 10 4.7225 9.89464 4.91004 9.70711C5.09757 9.51957 5.20293 9.26522 5.20293 9V5.8C5.20557 4.79299 5.60677 3.82798 6.31884 3.11591C7.03091 2.40384 7.99592 2.00264 9.00293 2H11.2029V4H10.4029C10.0643 3.95067 9.71924 3.97137 9.38898 4.06082C9.05873 4.15026 8.75034 4.30655 8.48293 4.52C8.32065 4.6899 8.19446 4.8909 8.11196 5.11089C8.02946 5.33087 7.99238 5.56529 8.00293 5.8V9C8.00293 9.26522 8.10829 9.51957 8.29582 9.70711C8.48336 9.89464 8.73771 10 9.00293 10H11.5229L10.7229 12Z" fill="white"/>
</svg>
