<svg width="21" height="21" viewBox="0 0 21 21" fill="none" xmlns="http://www.w3.org/2000/svg">
<path d="M10.0039 5.18311C9.015 5.18311 8.0483 5.47635 7.22606 6.02576C6.40381 6.57516 5.76295 7.35606 5.38451 8.26969C5.00607 9.18332 4.90705 10.1887 5.09998 11.1586C5.29291 12.1285 5.76911 13.0194 6.46837 13.7186C7.16763 14.4179 8.05855 14.8941 9.02845 15.087C9.99836 15.28 11.0037 15.1809 11.9173 14.8025C12.831 14.4241 13.6118 13.7832 14.1613 12.961C14.7107 12.1387 15.0039 11.172 15.0039 10.1831C15.0039 8.85702 14.4771 7.58525 13.5394 6.64757C12.6018 5.70989 11.33 5.18311 10.0039 5.18311ZM10.0039 13.1831C9.41056 13.1831 8.83054 13.0072 8.3372 12.6775C7.84385 12.3479 7.45933 11.8793 7.23227 11.3312C7.0052 10.783 6.94579 10.1798 7.06155 9.59783C7.17731 9.01589 7.46303 8.48134 7.88259 8.06178C8.30214 7.64223 8.83669 7.3565 9.41864 7.24075C10.0006 7.12499 10.6038 7.1844 11.152 7.41147C11.7001 7.63853 12.1687 8.02305 12.4983 8.51639C12.828 9.00974 13.0039 9.58976 13.0039 10.1831C13.0039 10.9788 12.6878 11.7418 12.1252 12.3044C11.5626 12.867 10.7996 13.1831 10.0039 13.1831ZM15.0039 4.18311C14.8061 4.18311 14.6128 4.24175 14.4483 4.35164C14.2839 4.46152 14.1557 4.6177 14.08 4.80042C14.0043 4.98315 13.9845 5.18421 14.0231 5.3782C14.0617 5.57218 14.1569 5.75036 14.2968 5.89021C14.4367 6.03006 14.6148 6.12531 14.8088 6.16389C15.0028 6.20248 15.2039 6.18267 15.3866 6.10699C15.5693 6.0313 15.7255 5.90312 15.8354 5.73868C15.9453 5.57423 16.0039 5.38089 16.0039 5.18311C16.0039 4.91789 15.8986 4.66354 15.711 4.476C15.5235 4.28846 15.2691 4.18311 15.0039 4.18311ZM19.9439 6.42311C19.9273 5.56853 19.765 4.72305 19.4639 3.92311C19.1847 3.19517 18.7555 2.5341 18.2042 1.9828C17.6529 1.43151 16.9918 1.00232 16.2639 0.723105C15.464 0.422005 14.6185 0.259673 13.7639 0.243105C12.7939 0.183105 12.4739 0.183105 10.0039 0.183105C7.53391 0.183105 7.21391 0.183105 6.24391 0.243105C5.38933 0.259673 4.54385 0.422005 3.74391 0.723105C3.01597 1.00232 2.3549 1.43151 1.8036 1.9828C1.25231 2.5341 0.823123 3.19517 0.543906 3.92311C0.242806 4.72305 0.0804739 5.56853 0.0639062 6.42311C0.00390619 7.40311 0.00390625 7.72311 0.00390625 10.1831C0.00390625 12.6431 0.00390619 12.9631 0.0639062 13.9431C0.0804739 14.7977 0.242806 15.6432 0.543906 16.4431C0.823123 17.171 1.25231 17.8321 1.8036 18.3834C2.3549 18.9347 3.01597 19.3639 3.74391 19.6431C4.54385 19.9442 5.38933 20.1065 6.24391 20.1231C7.24391 20.1231 7.53391 20.1831 10.0039 20.1831C12.4739 20.1831 12.7939 20.1831 13.7639 20.1231C14.6185 20.1065 15.464 19.9442 16.2639 19.6431C16.9918 19.3639 17.6529 18.9347 18.2042 18.3834C18.7555 17.8321 19.1847 17.171 19.4639 16.4431C19.765 15.6432 19.9273 14.7977 19.9439 13.9431C19.9439 12.9431 20.0039 12.6431 20.0039 10.1831C20.0039 7.72311 20.0039 7.40311 19.9439 6.42311ZM17.9439 13.8531C17.9264 14.4877 17.8082 15.1155 17.5939 15.7131C17.4167 16.1854 17.1366 16.6124 16.7739 16.9631C16.4253 17.326 15.9975 17.6032 15.5239 17.7731C14.9249 17.9962 14.2929 18.1179 13.6539 18.1331C12.7139 18.1331 12.4239 18.1831 9.99391 18.1831C7.56391 18.1831 7.28391 18.1831 6.34391 18.1831C5.70593 18.1666 5.07466 18.0485 4.47391 17.8331C4.00156 17.6559 3.57458 17.3758 3.22391 17.0131C2.86106 16.6645 2.58383 16.2367 2.41391 15.7631C2.19171 15.1673 2.07005 14.5388 2.05391 13.9031C2.05391 12.9031 2.05391 12.6531 2.05391 10.2331C2.05391 7.81311 2.05391 7.52311 2.05391 6.56311C2.07114 5.92431 2.19275 5.29264 2.41391 4.69311C2.58646 4.22374 2.86344 3.79973 3.22391 3.45311C3.57248 3.09026 4.00031 2.81302 4.47391 2.64311C5.0729 2.42 5.7049 2.29833 6.34391 2.28311C7.28391 2.18311 7.57391 2.18311 10.0039 2.18311C12.4339 2.18311 12.7239 2.18311 13.6639 2.18311C14.306 2.19943 14.9412 2.32105 15.5439 2.54311C16.0133 2.71566 16.4373 2.99264 16.7839 3.35311C17.1468 3.70168 17.424 4.12951 17.5939 4.60311C17.8387 5.21167 17.9774 5.85769 18.0039 6.51311C18.0039 7.51311 18.0539 7.76311 18.0539 10.1831C18.0539 12.6031 18.0039 12.8931 18.0039 13.8531H17.9439Z" fill="white"/>
</svg>
