<svg width="22" height="23" viewBox="0 0 22 23" fill="none" xmlns="http://www.w3.org/2000/svg">
<path d="M16.2092 8.18348C15.3139 8.1831 14.4325 8.40454 13.6438 8.82801C13.5718 8.63843 13.4438 8.47525 13.2769 8.36012C13.11 8.245 12.912 8.18339 12.7092 8.18348H8.7092C8.57786 8.1834 8.44779 8.20922 8.32643 8.25945C8.20507 8.30968 8.0948 8.38333 8.00193 8.47621C7.90905 8.56908 7.8354 8.67935 7.78517 8.80071C7.73494 8.92207 7.70912 9.05214 7.7092 9.18348V21.1835C7.70912 21.3148 7.73494 21.4449 7.78516 21.5663C7.83539 21.6876 7.90905 21.7979 8.00192 21.8908C8.0948 21.9836 8.20507 22.0573 8.32643 22.1075C8.44779 22.1577 8.57786 22.1836 8.7092 22.1835H12.7092C12.8405 22.1836 12.9706 22.1577 13.092 22.1075C13.2133 22.0573 13.3236 21.9836 13.4165 21.8908C13.5093 21.7979 13.583 21.6876 13.6332 21.5663C13.6835 21.4449 13.7093 21.3148 13.7092 21.1835V15.6835C13.7092 15.4183 13.8146 15.1639 14.0021 14.9764C14.1896 14.7888 14.444 14.6835 14.7092 14.6835C14.9744 14.6835 15.2288 14.7888 15.4163 14.9764C15.6038 15.1639 15.7092 15.4183 15.7092 15.6835V21.1835C15.7091 21.3148 15.7349 21.4449 15.7852 21.5663C15.8354 21.6876 15.909 21.7979 16.0019 21.8908C16.0948 21.9836 16.2051 22.0573 16.3264 22.1075C16.4478 22.1577 16.5779 22.1836 16.7092 22.1835H20.7092C20.8405 22.1836 20.9706 22.1577 21.092 22.1075C21.2133 22.0573 21.3236 21.9836 21.4165 21.8908C21.5094 21.7979 21.583 21.6876 21.6332 21.5663C21.6835 21.4449 21.7093 21.3148 21.7092 21.1835V13.6835C21.7074 12.2253 21.1273 10.8275 20.0963 9.79639C19.0652 8.76534 17.6673 8.18529 16.2092 8.18348ZM19.7092 20.1835H17.7092V15.6835C17.7092 14.8878 17.3931 14.1248 16.8305 13.5622C16.2679 12.9996 15.5048 12.6835 14.7092 12.6835C13.9135 12.6835 13.1505 12.9996 12.5879 13.5622C12.0253 14.1248 11.7092 14.8878 11.7092 15.6835V20.1835H9.7092V10.1835H11.7092V10.8866C11.7093 11.0938 11.7738 11.2959 11.8936 11.4649C12.0135 11.6339 12.1829 11.7615 12.3784 11.8301C12.5739 11.8987 12.7859 11.9049 12.9851 11.8478C13.1843 11.7908 13.3609 11.6733 13.4904 11.5116C13.9392 10.9416 14.5548 10.526 15.2512 10.3229C15.9476 10.1197 16.6901 10.139 17.3749 10.3782C18.0598 10.6174 18.6529 11.0645 19.0714 11.657C19.4898 12.2496 19.7128 12.9581 19.7092 13.6835V20.1835ZM5.7092 8.18348H1.7092C1.57786 8.1834 1.44779 8.20922 1.32643 8.25945C1.20507 8.30968 1.0948 8.38333 1.00193 8.47621C0.909052 8.56908 0.835395 8.67935 0.785167 8.80071C0.734939 8.92207 0.709124 9.05214 0.709199 9.18348V21.1835C0.709123 21.3148 0.734937 21.4449 0.785165 21.5663C0.835392 21.6876 0.909049 21.7979 1.00192 21.8908C1.0948 21.9836 1.20507 22.0573 1.32643 22.1075C1.44779 22.1577 1.57786 22.1836 1.7092 22.1835H5.7092C5.84054 22.1836 5.97061 22.1577 6.09197 22.1075C6.21333 22.0573 6.3236 21.9836 6.41648 21.8908C6.50935 21.7979 6.58301 21.6876 6.63323 21.5663C6.68346 21.4449 6.70928 21.3148 6.7092 21.1835V9.18348C6.70927 9.05214 6.68346 8.92207 6.63323 8.80071C6.583 8.67935 6.50935 8.56908 6.41647 8.47621C6.3236 8.38333 6.21333 8.30968 6.09197 8.25945C5.97061 8.20922 5.84054 8.1834 5.7092 8.18348ZM4.7092 20.1835H2.7092V10.1835H4.7092V20.1835ZM3.72385 0.72648C3.28621 0.700283 2.84782 0.763377 2.43533 0.911924C2.02284 1.06047 1.64487 1.29137 1.32442 1.59057C1.00396 1.88978 0.747715 2.25104 0.571258 2.65238C0.394801 3.05372 0.301822 3.48677 0.297976 3.92517C0.29413 4.36358 0.379496 4.79818 0.548884 5.20256C0.718272 5.60694 0.968141 5.97264 1.2833 6.27742C1.59845 6.5822 1.97231 6.81969 2.38213 6.97546C2.79195 7.13122 3.22917 7.20199 3.6672 7.18348H3.69552C4.13432 7.20954 4.57382 7.14586 4.98717 6.99633C5.40053 6.8468 5.77905 6.61455 6.09962 6.31379C6.42019 6.01302 6.67606 5.65005 6.85161 5.24706C7.02715 4.84406 7.11869 4.40951 7.12062 3.96994C7.12254 3.53037 7.03482 3.09503 6.86282 2.69051C6.69081 2.28599 6.43813 1.92079 6.12022 1.61723C5.8023 1.31366 5.42583 1.0781 5.0138 0.924951C4.60178 0.771799 4.16285 0.704266 3.72384 0.72648H3.72385ZM3.69553 5.18348H3.6672C3.49427 5.20448 3.31884 5.18826 3.15269 5.13591C2.98654 5.08356 2.8335 4.99628 2.70384 4.87994C2.57418 4.7636 2.4709 4.62088 2.40091 4.46135C2.33093 4.30183 2.29586 4.12918 2.29807 3.95499C2.29807 3.20889 2.85764 2.72647 3.72385 2.72647C3.89855 2.70318 4.07621 2.7176 4.24486 2.76875C4.41352 2.81991 4.56926 2.90661 4.70158 3.02302C4.83391 3.13943 4.93976 3.28285 5.01199 3.44361C5.08422 3.60437 5.12116 3.77875 5.12033 3.95499C5.12033 4.70108 4.56076 5.18348 3.69553 5.18348Z" fill="white"/>
</svg>
