<svg width="16" height="21" viewBox="0 0 16 21" fill="none" xmlns="http://www.w3.org/2000/svg">
<path d="M8 0.870117C5.87827 0.870117 3.84344 1.71297 2.34315 3.21326C0.842855 4.71355 0 6.74839 0 8.87012C0 14.2701 7.05 20.3701 7.35 20.6301C7.53113 20.785 7.76165 20.8702 8 20.8702C8.23835 20.8702 8.46887 20.785 8.65 20.6301C9 20.3701 16 14.2701 16 8.87012C16 6.74839 15.1571 4.71355 13.6569 3.21326C12.1566 1.71297 10.1217 0.870117 8 0.870117ZM8 18.5201C5.87 16.5201 2 12.2101 2 8.87012C2 7.27882 2.63214 5.7527 3.75736 4.62748C4.88258 3.50226 6.4087 2.87012 8 2.87012C9.5913 2.87012 11.1174 3.50226 12.2426 4.62748C13.3679 5.7527 14 7.27882 14 8.87012C14 12.2101 10.13 16.5301 8 18.5201ZM8 4.87012C7.20887 4.87012 6.43552 5.10471 5.77772 5.54424C5.11992 5.98376 4.60723 6.60848 4.30448 7.33938C4.00173 8.07029 3.92252 8.87455 4.07686 9.65048C4.2312 10.4264 4.61216 11.1391 5.17157 11.6985C5.73098 12.258 6.44371 12.6389 7.21964 12.7933C7.99556 12.9476 8.79983 12.8684 9.53073 12.5656C10.2616 12.2629 10.8864 11.7502 11.3259 11.0924C11.7654 10.4346 12 9.66124 12 8.87012C12 7.80925 11.5786 6.79184 10.8284 6.04169C10.0783 5.29154 9.06087 4.87012 8 4.87012ZM8 10.8701C7.60444 10.8701 7.21776 10.7528 6.88886 10.5331C6.55996 10.3133 6.30362 10.0009 6.15224 9.63548C6.00087 9.27003 5.96126 8.8679 6.03843 8.47994C6.1156 8.09197 6.30608 7.73561 6.58579 7.4559C6.86549 7.1762 7.22186 6.98572 7.60982 6.90855C7.99778 6.83138 8.39991 6.87098 8.76537 7.02236C9.13082 7.17373 9.44318 7.43008 9.66294 7.75898C9.8827 8.08788 10 8.47455 10 8.87012C10 9.40055 9.78929 9.90926 9.41421 10.2843C9.03914 10.6594 8.53043 10.8701 8 10.8701Z" fill="white"/>
</svg>
