<?xml version="1.0" standalone="no"?>
<!DOCTYPE svg PUBLIC "-//W3C//DTD SVG 20010904//EN"
 "http://www.w3.org/TR/2001/REC-SVG-20010904/DTD/svg10.dtd">
<svg version="1.0" xmlns="http://www.w3.org/2000/svg"
 width="700.000000pt" height="700.000000pt" viewBox="0 0 700.000000 700.000000"
 preserveAspectRatio="xMidYMid meet">
<metadata>
Created by potrace 1.14, written by Peter Selinger 2001-2017
</metadata>
<g transform="translate(0.000000,700.000000) scale(0.100000,-0.100000)"
fill="#000000" stroke="none">
<path d="M3461 6948 c-194 -209 -343 -441 -415 -648 -79 -229 -73 -431 20
-599 39 -71 52 -88 156 -202 135 -148 258 -334 306 -461 l21 -55 -229 -1
c-126 0 -264 -3 -307 -6 -43 -3 -118 -8 -168 -11 -49 -4 -97 -8 -105 -10 -8
-2 -49 -7 -90 -10 -41 -4 -79 -8 -85 -8 -5 -1 -9 4 -7 12 9 44 7 165 -4 218
-24 118 -79 216 -183 329 -71 77 -112 142 -147 234 -26 69 -28 86 -28 220 -1
141 4 174 40 288 8 23 14 46 14 50 0 12 -98 -98 -159 -178 -100 -132 -140
-203 -184 -326 -74 -207 -41 -392 95 -534 105 -109 180 -207 236 -311 l30 -56
-76 -19 c-42 -10 -90 -17 -107 -16 -16 2 -55 5 -85 7 -303 26 -823 26 -980 1
-14 -3 -56 -9 -95 -15 -333 -51 -560 -161 -652 -319 -63 -107 -63 -230 -1
-390 l20 -52 -44 -48 c-101 -108 -189 -261 -224 -387 -19 -72 -26 -228 -13
-308 32 -194 156 -405 346 -587 93 -90 104 -99 198 -171 l61 -47 22 -93 c162
-690 206 -852 297 -1094 46 -124 147 -329 210 -427 176 -273 402 -471 706
-617 115 -56 288 -124 341 -135 13 -3 55 -14 93 -26 39 -11 79 -22 90 -24 11
-2 55 -11 97 -20 42 -9 94 -18 115 -21 21 -3 61 -10 88 -15 64 -12 124 -19
205 -26 36 -2 74 -7 85 -9 132 -27 904 -27 1195 0 568 53 1014 189 1337 406
189 128 371 318 491 514 84 136 191 381 255 580 47 147 109 371 121 438 3 15
12 52 20 81 l16 54 72 17 c179 42 334 109 415 180 177 155 142 378 -108 681
l-58 71 34 80 c70 161 92 308 70 458 -72 478 -638 888 -1589 1150 -87 24 -161
46 -164 49 -2 3 0 11 5 18 6 7 20 47 32 88 17 60 20 96 17 185 -5 170 -47 263
-190 425 -122 138 -176 268 -178 432 -2 122 17 235 57 343 l8 20 -21 -20 c-53
-49 -164 -187 -215 -265 -111 -172 -158 -316 -151 -458 6 -122 50 -214 159
-331 79 -85 108 -120 153 -187 43 -63 108 -192 100 -199 -2 -3 -50 4 -106 15
-56 10 -119 22 -140 25 -21 3 -47 7 -58 9 -12 2 -45 7 -75 11 -30 4 -56 8 -59
10 -3 2 -34 6 -70 10 -36 4 -67 8 -70 10 -3 2 -41 6 -85 10 -44 4 -93 8 -110
10 -16 3 -68 7 -115 11 -47 3 -88 8 -92 10 -4 3 2 29 12 59 10 30 22 76 26
102 3 26 8 57 10 68 10 50 3 221 -12 267 -3 9 -7 25 -9 35 -23 112 -126 285
-246 413 -93 100 -161 224 -200 367 -34 121 -35 342 -4 498 12 61 35 143 50
179 8 20 13 36 11 36 -3 0 -23 -19 -45 -42z m249 -2630 c0 -4 -7 -8 -14 -8
-23 0 -136 -70 -183 -113 -56 -52 -96 -132 -88 -178 8 -46 41 -92 89 -123 46
-30 169 -72 241 -83 235 -34 417 80 410 257 -3 66 -30 151 -65 198 l-30 42 27
-4 c16 -3 64 -7 108 -11 72 -6 343 -39 405 -50 323 -57 514 -103 770 -186 133
-44 159 -56 110 -54 -56 3 -172 -15 -233 -36 -268 -90 -225 -276 103 -448 234
-123 472 -97 538 59 19 46 23 164 7 218 -7 23 -11 42 -8 42 9 0 115 -62 191
-112 184 -122 332 -276 411 -426 l33 -64 -18 -41 c-105 -243 -414 -497 -814
-669 -25 -11 -58 -26 -75 -33 -114 -52 -493 -171 -640 -201 -11 -2 -30 -6 -42
-9 -13 -3 -35 -7 -50 -10 -16 -3 -36 -8 -45 -11 -10 -3 -30 -7 -45 -10 -16 -2
-64 -11 -108 -19 -44 -8 -98 -17 -120 -20 -22 -3 -58 -8 -80 -11 -22 -3 -51
-7 -65 -9 -25 -4 -79 -10 -160 -20 -198 -23 -433 -34 -710 -34 -313 0 -471 8
-755 40 -132 15 -167 19 -195 24 -14 2 -45 7 -70 10 -25 3 -52 8 -60 10 -8 2
-32 6 -54 10 -234 34 -657 150 -896 245 -461 184 -780 423 -914 687 -14 29
-26 60 -26 69 0 22 61 133 103 188 53 69 178 189 261 250 189 140 420 257 713
361 l93 33 -31 -39 c-76 -96 -82 -190 -17 -262 65 -70 215 -123 323 -114 146
13 237 111 237 254 0 84 -35 194 -76 238 l-32 33 56 11 c192 40 432 79 585 96
28 3 70 7 95 10 75 8 149 14 275 21 66 3 121 7 122 8 7 6 413 0 413 -6z"/>
<path d="M3243 4210 c-55 -19 -100 -47 -144 -87 -21 -20 -38 -24 -110 -27 -46
-2 -111 -12 -144 -23 l-60 -19 66 -31 c35 -17 77 -35 92 -38 34 -9 34 -20 0
-34 -66 -26 -172 -15 -271 29 -25 11 -47 18 -49 16 -12 -11 23 -94 51 -122
l33 -33 -46 -23 c-61 -30 -132 -104 -153 -156 -9 -23 -15 -42 -13 -42 2 0 41
17 87 39 83 38 184 68 195 58 3 -3 -2 -27 -11 -53 -22 -65 -20 -119 6 -173
l22 -46 7 41 c20 114 76 234 137 292 l35 32 19 -30 c18 -30 101 -90 124 -90 9
0 10 10 3 38 -10 41 -13 144 -5 180 13 62 65 136 142 203 44 38 71 72 79 97 5
18 3 22 -17 22 -13 -1 -47 -9 -75 -20z"/>
<path d="M1164 3678 c-79 -36 -165 -385 -120 -492 8 -20 17 -36 19 -36 2 0 27
-4 55 -10 231 -43 418 -29 452 35 30 57 9 112 -97 254 -146 193 -248 276 -309
249z"/>
<path d="M3790 3674 c-194 -25 -357 -70 -735 -204 -538 -190 -588 -202 -885
-206 -230 -3 -276 -8 -293 -36 -16 -24 -2 -45 55 -81 112 -72 398 -163 598
-191 308 -44 466 -14 674 126 33 23 66 47 72 52 6 6 28 25 49 41 21 17 58 47
81 68 117 105 215 179 269 206 110 53 129 60 314 121 101 34 193 66 204 72 18
9 18 12 4 19 -39 22 -276 29 -407 13z"/>
<path d="M4681 3669 c-30 -10 -103 -27 -162 -38 -125 -23 -152 -35 -201 -89
-154 -171 26 -335 367 -334 66 0 127 2 135 4 8 3 34 10 57 17 52 14 101 55
119 96 51 122 -102 368 -226 364 -19 -1 -59 -10 -89 -20z"/>
<path d="M5718 3321 c-57 -101 -138 -171 -211 -185 l-28 -5 20 32 c53 88 82
140 78 144 -10 10 -148 -52 -195 -87 -49 -38 -56 -40 -109 -37 -66 4 -141 -8
-195 -31 -78 -34 -37 -58 137 -77 129 -15 225 -81 280 -194 17 -33 32 -61 36
-61 15 0 49 95 49 139 l0 48 35 -4 c81 -9 223 -82 284 -147 33 -35 42 -33 34
7 -13 71 -51 121 -121 162 -28 17 -29 20 -14 32 29 22 150 57 237 69 22 3 41
7 43 9 2 2 -16 15 -40 28 -63 37 -148 49 -232 33 -35 -7 -38 -6 -30 11 12 28
6 99 -11 133 -9 16 -17 30 -18 30 -1 0 -14 -22 -29 -49z"/>
<path d="M1630 3033 c-17 -21 -33 -55 -37 -75 -3 -21 -7 -38 -9 -38 -3 0 -21
11 -42 25 -70 46 -139 59 -252 47 -8 -1 17 -23 57 -50 86 -56 163 -126 163
-147 0 -9 -9 -15 -25 -15 -62 0 -142 -49 -178 -108 l-17 -30 78 25 c96 31 202
40 271 23 28 -6 51 -14 51 -16 0 -3 -7 -19 -16 -37 -16 -30 -23 -141 -10 -154
3 -3 22 11 43 32 79 78 204 116 308 93 l40 -8 0 -60 c1 -54 4 -63 34 -94 44
-45 129 -89 216 -112 53 -14 106 -18 220 -18 154 0 186 4 290 31 143 37 265
123 265 185 0 30 -77 57 -214 74 -59 8 -203 45 -267 70 -81 30 -158 76 -234
138 -33 27 -67 46 -81 46 -52 0 -109 -43 -161 -122 -14 -21 -31 -36 -37 -34
-6 3 -30 11 -53 17 -33 10 -46 21 -63 53 -24 48 -113 151 -143 167 -20 11 -20
10 -13 -47 3 -33 9 -76 12 -96 7 -46 -5 -48 -45 -9 -39 38 -68 96 -85 171 -17
73 -16 66 -16 90 0 30 -15 24 -50 -17z"/>
<path d="M4385 2936 c-141 -68 -212 -228 -156 -351 21 -47 110 -132 173 -165
55 -29 131 -30 179 -1 87 53 104 58 166 56 140 -5 305 94 334 199 23 85 -24
161 -133 216 -77 38 -111 38 -168 -1 -60 -41 -100 -36 -189 25 -79 55 -126 60
-206 22z"/>
<path d="M3610 2905 c-155 -41 -295 -150 -358 -277 -73 -148 -4 -274 190 -346
166 -62 271 -61 385 5 97 55 145 141 145 261 1 165 -65 309 -161 350 -46 19
-143 23 -201 7z"/>
</g>
</svg>
